<?xml version="1.0" encoding="UTF-8" standalone="no"?>
<!-- Generator: Adobe Illustrator 13.0.0, SVG Export Plug-In . SVG Version: 6.00 Build 14948)  -->

<svg
   xmlns:dc="http://purl.org/dc/elements/1.1/"
   xmlns:cc="http://creativecommons.org/ns#"
   xmlns:rdf="http://www.w3.org/1999/02/22-rdf-syntax-ns#"
   xmlns:svg="http://www.w3.org/2000/svg"
   xmlns="http://www.w3.org/2000/svg"
   xmlns:xlink="http://www.w3.org/1999/xlink"
   xmlns:sodipodi="http://sodipodi.sourceforge.net/DTD/sodipodi-0.dtd"
   xmlns:inkscape="http://www.inkscape.org/namespaces/inkscape"
   version="1.1"
   id="Layer_1"
   x="0px"
   y="0px"
   width="300px"
   height="150px"
   viewBox="0 0 300 150"
   style="enable-background:new 0 0 300 150;"
   xml:space="preserve"
   inkscape:version="0.48.2 r9819"
   sodipodi:docname="IMDb_logo_hollow.svg"><metadata
   id="metadata3063"><rdf:RDF><cc:Work
       rdf:about=""><dc:format>image/svg+xml</dc:format><dc:type
         rdf:resource="http://purl.org/dc/dcmitype/StillImage" /></cc:Work></rdf:RDF></metadata><defs
   id="defs3061"><linearGradient
     inkscape:collect="always"
     xlink:href="#SVGID_3_"
     id="linearGradient3084"
     gradientUnits="userSpaceOnUse"
     x1="127.9512"
     y1="-6.8291"
     x2="172.1249"
     y2="158.0325"
     gradientTransform="translate(10.679612,97.087379)" /><linearGradient
     inkscape:collect="always"
     xlink:href="#SVGID_1_"
     id="linearGradient3086"
     gradientUnits="userSpaceOnUse"
     x1="123.7358"
     y1="-22.5557"
     x2="176.3433"
     y2="173.7773" /></defs><sodipodi:namedview
   pagecolor="#ffffff"
   bordercolor="#666666"
   borderopacity="1"
   objecttolerance="10"
   gridtolerance="10"
   guidetolerance="10"
   inkscape:pageopacity="0"
   inkscape:pageshadow="2"
   inkscape:window-width="859"
   inkscape:window-height="723"
   id="namedview3059"
   showgrid="false"
   inkscape:zoom="1.03"
   inkscape:cx="150"
   inkscape:cy="75"
   inkscape:window-x="258"
   inkscape:window-y="132"
   inkscape:window-maximized="0"
   inkscape:current-layer="Layer_1" />
<linearGradient
   id="SVGID_1_"
   gradientUnits="userSpaceOnUse"
   x1="123.7358"
   y1="-22.5557"
   x2="176.3433"
   y2="173.7773">
	<stop
   offset="0"
   style="stop-color:#F8E643"
   id="stop3027" />
	<stop
   offset="1"
   style="stop-color:#BFA233"
   id="stop3029" />
</linearGradient>
<path
   style="fill:url(#linearGradient3086)"
   d="M 28.40625 8.0625 C 25.58525 22.9175 21.0715 24.85525 9.4375 27.03125 L 9.4375 124.1875 C 21.0755 125.7125 28.2025 131.52325 28.4375 143.15625 L 271.65625 143.15625 C 272.53525 132.16825 280.282 125.7135 290.625 124.1875 L 290.625 27.03125 C 278.997 26.14625 272.54625 20.3365 271.65625 8.0625 L 28.40625 8.0625 z M 50.84375 34.71875 L 52.03125 34.71875 L 72.21875 34.71875 L 73.4375 34.71875 L 73.4375 35.9375 L 73.4375 113.65625 L 73.4375 114.875 L 72.21875 114.875 L 52.03125 114.875 L 50.84375 114.875 L 50.84375 113.65625 L 50.84375 35.9375 L 50.84375 34.71875 z M 79.125 34.71875 L 80.34375 34.71875 L 106.46875 34.71875 L 107.5 34.71875 L 107.65625 35.75 L 108.46875 41.375 C 108.95375 44.71 109.4795 48.3505 110.0625 52.3125 L 111.6875 63.375 L 115.21875 35.78125 L 115.34375 34.71875 L 116.40625 34.71875 L 142.71875 34.71875 L 143.90625 34.71875 L 143.90625 35.9375 L 143.90625 113.65625 L 143.90625 114.875 L 142.71875 114.875 L 125.09375 114.875 L 123.90625 114.875 L 123.90625 113.65625 L 123.84375 78.96875 L 119.1875 113.8125 L 119.03125 114.875 L 118 114.875 L 105.375 114.875 L 104.34375 114.875 L 104.1875 113.84375 L 99.21875 78.96875 L 99.15625 113.65625 L 99.15625 114.875 L 97.9375 114.875 L 80.34375 114.875 L 79.125 114.875 L 79.125 113.65625 L 79.125 35.9375 L 79.125 34.71875 z M 149.5625 34.71875 L 150.78125 34.71875 L 165.84375 34.71875 C 175.78175 34.71875 182.34425 35.197 185.90625 36.125 C 189.56425 37.084 192.40275 38.69125 194.34375 40.90625 C 196.27175 43.13225 197.48475 45.6065 197.96875 48.3125 C 198.43475 50.9165 198.65625 55.84675 198.65625 63.34375 L 198.65625 90.5625 C 198.65625 97.6955 198.34925 102.377 197.65625 104.875 C 196.93625 107.463 195.6295 109.517 193.8125 111 C 192.0425 112.438 189.84625 113.4885 187.28125 114.0625 C 184.77425 114.6115 181.1425 114.875 176.1875 114.875 L 150.78125 114.875 L 149.5625 114.875 L 149.5625 113.65625 L 149.5625 35.9375 L 149.5625 34.71875 z M 203.21875 34.71875 L 204.4375 34.71875 L 223.8125 34.71875 L 225.03125 34.71875 L 225.03125 35.9375 L 225.03125 51.53125 C 226.17725 50.54825 227.37225 49.75625 228.65625 49.15625 C 230.80425 48.16525 233.16 47.65625 235.625 47.65625 C 238.428 47.65625 240.894 48.112 243 49 C 245.169 49.927 246.849 51.2575 248 52.9375 C 249.125 54.5925 249.8245 56.23475 250.0625 57.84375 C 250.2795 59.38075 250.40625 62.52975 250.40625 67.21875 L 250.40625 95.90625 C 250.40625 100.74225 250.07525 104.25625 249.40625 106.65625 C 248.72325 109.19025 247.06925 111.408 244.53125 113.25 C 242.01325 115.073 239.01375 116 235.59375 116 C 233.13075 116 230.79425 115.455 228.65625 114.375 C 227.13425 113.604 225.72825 112.554 224.40625 111.25 L 223.6875 113.96875 L 223.46875 114.875 L 222.53125 114.875 L 204.4375 114.875 L 203.21875 114.875 L 203.21875 113.65625 L 203.21875 35.9375 L 203.21875 34.71875 z M 172.15625 50.40625 L 172.15625 99.15625 C 173.79725 99.03125 174.88375 98.6575 175.21875 98.0625 C 175.46875 97.6135 176.0625 95.81675 176.0625 89.09375 L 176.0625 58.84375 C 176.0625 54.58875 175.892 52.96375 175.75 52.34375 C 175.599 51.66275 175.3095 51.19825 174.8125 50.90625 C 174.5335 50.73925 173.83725 50.48925 172.15625 50.40625 z M 226.6875 61.375 C 225.6925 61.375 225.54475 61.7545 225.46875 61.9375 C 225.33275 62.2665 225.03125 63.537 225.03125 68.125 L 225.03125 95.5 C 225.03125 99.739 225.33725 101.1085 225.53125 101.5625 C 225.68325 101.9285 225.95575 102.28125 226.84375 102.28125 C 227.78175 102.28125 227.996 101.9015 228.125 101.5625 C 228.306 101.0835 228.59375 99.598 228.59375 94.875 L 228.59375 68.125 C 228.59375 64.057 228.2665 62.63925 228.0625 62.15625 C 227.8695 61.69225 227.5515 61.375 226.6875 61.375 z "
   id="path3031" />
<linearGradient
   id="SVGID_2_"
   gradientUnits="userSpaceOnUse"
   x1="126.8423"
   y1="162.1738"
   x2="173.2373"
   y2="-10.973">
	<stop
   offset="0"
   style="stop-color:#F8E643"
   id="stop3034" />
	<stop
   offset="1"
   style="stop-color:#BFA233"
   id="stop3036" />
</linearGradient>

<linearGradient
   id="SVGID_3_"
   gradientUnits="userSpaceOnUse"
   x1="127.9512"
   y1="-6.8291"
   x2="172.1249"
   y2="158.0325">
	<stop
   offset="0"
   style="stop-color:#F8E643"
   id="stop3041" />
	<stop
   offset="1"
   style="stop-color:#BFA233"
   id="stop3043" />
</linearGradient>







</svg>